<svg xmlns="http://www.w3.org/2000/svg" xmlns:xlink="http://www.w3.org/1999/xlink" width="190" zoomAndPan="magnify" viewBox="0 0 142.5 30.000001" height="40" preserveAspectRatio="xMidYMid meet" version="1.0"><defs><g/><clipPath id="1b2709077b"><path d="M 87 7 L 96 7 L 96 15 L 87 15 Z M 87 7 " clip-rule="nonzero"/></clipPath><clipPath id="b17c8d589b"><path d="M 85.546875 10.035156 L 89.796875 4.148438 L 98.621094 10.527344 L 94.371094 16.410156 Z M 85.546875 10.035156 " clip-rule="nonzero"/></clipPath><clipPath id="a041cf0839"><path d="M 85.546875 10.035156 L 89.796875 4.148438 L 98.621094 10.527344 L 94.371094 16.410156 Z M 85.546875 10.035156 " clip-rule="nonzero"/></clipPath><clipPath id="df82e2901a"><path d="M 90 3 L 99 3 L 99 11 L 90 11 Z M 90 3 " clip-rule="nonzero"/></clipPath><clipPath id="9b125632d5"><path d="M 88.582031 5.832031 L 92.832031 -0.0507812 L 101.65625 6.324219 L 97.40625 12.207031 Z M 88.582031 5.832031 " clip-rule="nonzero"/></clipPath><clipPath id="754adf3c05"><path d="M 88.582031 5.832031 L 92.832031 -0.0507812 L 101.65625 6.324219 L 97.40625 12.207031 Z M 88.582031 5.832031 " clip-rule="nonzero"/></clipPath></defs><g clip-path="url(#1b2709077b)"><g clip-path="url(#b17c8d589b)"><g clip-path="url(#a041cf0839)"><path fill="#6db432" d="M 94.183594 7.402344 L 87.832031 8.390625 C 86.601562 8.582031 86.875 10.992188 88.324219 10.742188 L 92.261719 10.058594 L 92.757812 14.058594 C 92.910156 15.277344 95.277344 14.933594 95.097656 13.699219 Z M 94.183594 7.402344 " fill-opacity="1" fill-rule="nonzero"/></g></g></g><g clip-path="url(#df82e2901a)"><g clip-path="url(#9b125632d5)"><g clip-path="url(#754adf3c05)"><path fill="#6db432" d="M 97.21875 3.199219 L 90.867188 4.191406 C 89.640625 4.382812 89.910156 6.792969 91.359375 6.539062 L 95.296875 5.855469 L 95.792969 9.859375 C 95.945312 11.078125 98.3125 10.730469 98.132812 9.496094 Z M 97.21875 3.199219 " fill-opacity="1" fill-rule="nonzero"/></g></g></g><g fill="#ffffff" fill-opacity="1"><g transform="translate(49.72466, 24.411103)"><g><path d="M -0.078125 -10.78125 C -0.191406 -11.039062 -0.203125 -11.28125 -0.109375 -11.5 C -0.015625 -11.71875 0.132812 -11.882812 0.34375 -12 C 0.550781 -12.125 0.769531 -12.1875 1 -12.1875 C 1.226562 -12.1875 1.425781 -12.140625 1.59375 -12.046875 C 1.757812 -11.960938 1.890625 -11.8125 1.984375 -11.59375 L 6.203125 -3.515625 L 10.34375 -11.5625 C 10.550781 -11.976562 10.875 -12.1875 11.3125 -12.1875 C 11.539062 -12.1875 11.757812 -12.125 11.96875 -12 C 12.175781 -11.875 12.328125 -11.695312 12.421875 -11.46875 C 12.515625 -11.25 12.484375 -10.988281 12.328125 -10.6875 L 7.203125 -0.59375 C 6.972656 -0.195312 6.640625 0 6.203125 0 C 5.992188 0 5.796875 -0.0507812 5.609375 -0.15625 C 5.421875 -0.257812 5.273438 -0.414062 5.171875 -0.625 Z M -0.078125 -10.78125 "/></g></g></g><g fill="#ffffff" fill-opacity="1"><g transform="translate(62.088147, 24.411103)"><g><path d="M 2.875 -11.171875 C 2.875 -10.859375 2.753906 -10.617188 2.515625 -10.453125 C 2.273438 -10.296875 2.023438 -10.21875 1.765625 -10.21875 C 1.484375 -10.21875 1.226562 -10.296875 1 -10.453125 C 0.769531 -10.617188 0.65625 -10.859375 0.65625 -11.171875 L 0.65625 -11.421875 C 0.65625 -11.753906 0.769531 -12 1 -12.15625 C 1.226562 -12.3125 1.484375 -12.390625 1.765625 -12.390625 C 2.023438 -12.390625 2.273438 -12.3125 2.515625 -12.15625 C 2.753906 -12 2.875 -11.753906 2.875 -11.421875 Z M 0.671875 -8.8125 C 0.671875 -9.113281 0.785156 -9.34375 1.015625 -9.5 C 1.253906 -9.664062 1.503906 -9.75 1.765625 -9.75 C 2.023438 -9.75 2.269531 -9.664062 2.5 -9.5 C 2.738281 -9.34375 2.859375 -9.117188 2.859375 -8.828125 L 2.859375 -0.9375 C 2.859375 -0.613281 2.738281 -0.375 2.5 -0.21875 C 2.269531 -0.0703125 2.023438 0 1.765625 0 C 1.503906 0 1.253906 -0.0703125 1.015625 -0.21875 C 0.785156 -0.375 0.671875 -0.613281 0.671875 -0.9375 Z M 0.671875 -8.8125 "/></g></g></g><g fill="#ffffff" fill-opacity="1"><g transform="translate(65.226738, 24.411103)"><g><path d="M 5.171875 -9.75 C 5.515625 -9.75 5.785156 -9.671875 5.984375 -9.515625 C 6.191406 -9.367188 6.296875 -9.132812 6.296875 -8.8125 C 6.296875 -8.5 6.191406 -8.253906 5.984375 -8.078125 C 5.785156 -7.898438 5.515625 -7.8125 5.171875 -7.8125 C 4.367188 -7.8125 3.800781 -7.523438 3.46875 -6.953125 C 3.144531 -6.378906 2.984375 -5.597656 2.984375 -4.609375 L 2.984375 -0.96875 C 2.984375 -0.695312 2.878906 -0.46875 2.671875 -0.28125 C 2.472656 -0.09375 2.226562 0 1.9375 0 C 1.601562 0 1.332031 -0.09375 1.125 -0.28125 C 0.925781 -0.46875 0.828125 -0.695312 0.828125 -0.96875 L 0.828125 -8.765625 C 0.828125 -9.066406 0.941406 -9.304688 1.171875 -9.484375 C 1.410156 -9.660156 1.664062 -9.75 1.9375 -9.75 C 2.195312 -9.75 2.4375 -9.664062 2.65625 -9.5 C 2.875 -9.332031 2.984375 -9.085938 2.984375 -8.765625 L 2.984375 -8.65625 C 3.265625 -9.019531 3.585938 -9.289062 3.953125 -9.46875 C 4.328125 -9.65625 4.734375 -9.75 5.171875 -9.75 Z M 5.171875 -9.75 "/></g></g></g><g fill="#ffffff" fill-opacity="1"><g transform="translate(70.949065, 24.411103)"><g><path d="M 8.90625 -9.75 C 9.226562 -9.75 9.488281 -9.65625 9.6875 -9.46875 C 9.882812 -9.28125 9.984375 -9.039062 9.984375 -8.75 L 9.984375 -1 C 9.984375 -0.707031 9.882812 -0.46875 9.6875 -0.28125 C 9.488281 -0.09375 9.226562 0 8.90625 0 C 8.582031 0 8.332031 -0.0703125 8.15625 -0.21875 C 7.976562 -0.363281 7.867188 -0.554688 7.828125 -0.796875 C 7.390625 -0.453125 6.898438 -0.203125 6.359375 -0.046875 C 5.828125 0.109375 5.320312 0.1875 4.84375 0.1875 C 3.925781 0.1875 3.128906 -0.0195312 2.453125 -0.4375 C 1.785156 -0.863281 1.273438 -1.457031 0.921875 -2.21875 C 0.566406 -2.988281 0.390625 -3.882812 0.390625 -4.90625 C 0.390625 -5.894531 0.582031 -6.765625 0.96875 -7.515625 C 1.363281 -8.273438 1.914062 -8.867188 2.625 -9.296875 C 3.332031 -9.722656 4.15625 -9.9375 5.09375 -9.9375 C 5.5 -9.9375 5.953125 -9.859375 6.453125 -9.703125 C 6.953125 -9.546875 7.410156 -9.304688 7.828125 -8.984375 C 7.878906 -9.210938 7.992188 -9.394531 8.171875 -9.53125 C 8.347656 -9.675781 8.59375 -9.75 8.90625 -9.75 Z M 5.078125 -1.734375 C 5.640625 -1.734375 6.179688 -1.859375 6.703125 -2.109375 C 7.222656 -2.359375 7.59375 -2.726562 7.8125 -3.21875 L 7.8125 -6.53125 C 7.570312 -7 7.207031 -7.359375 6.71875 -7.609375 C 6.226562 -7.867188 5.738281 -8 5.25 -8 C 4.4375 -8 3.785156 -7.703125 3.296875 -7.109375 C 2.804688 -6.523438 2.5625 -5.78125 2.5625 -4.875 C 2.5625 -3.9375 2.789062 -3.175781 3.25 -2.59375 C 3.707031 -2.019531 4.316406 -1.734375 5.078125 -1.734375 Z M 5.078125 -1.734375 "/></g></g></g><g fill="#ffffff" fill-opacity="1"><g transform="translate(82.011116, 24.411103)"><g><path d="M 2.859375 -0.953125 C 2.859375 -0.703125 2.75 -0.476562 2.53125 -0.28125 C 2.320312 -0.09375 2.066406 0 1.765625 0 C 1.441406 0 1.175781 -0.09375 0.96875 -0.28125 C 0.769531 -0.476562 0.671875 -0.703125 0.671875 -0.953125 L 0.671875 -11.421875 C 0.671875 -11.679688 0.769531 -11.90625 0.96875 -12.09375 C 1.175781 -12.289062 1.441406 -12.390625 1.765625 -12.390625 C 2.066406 -12.390625 2.320312 -12.289062 2.53125 -12.09375 C 2.75 -11.90625 2.859375 -11.679688 2.859375 -11.421875 Z M 2.859375 -0.953125 "/></g></g></g><g fill="#ffffff" fill-opacity="1"><g transform="translate(85.149707, 24.411103)"><g><path d="M 3 -11.171875 C 3 -10.859375 2.878906 -10.617188 2.640625 -10.453125 C 2.410156 -10.296875 2.160156 -10.21875 1.890625 -10.21875 C 1.609375 -10.21875 1.351562 -10.296875 1.125 -10.453125 C 0.894531 -10.617188 0.78125 -10.859375 0.78125 -11.171875 L 0.78125 -11.421875 C 0.78125 -11.753906 0.894531 -12 1.125 -12.15625 C 1.351562 -12.3125 1.609375 -12.390625 1.890625 -12.390625 C 2.160156 -12.390625 2.410156 -12.3125 2.640625 -12.15625 C 2.878906 -12 3 -11.753906 3 -11.421875 Z M 0.84375 3.09375 C 0.40625 3.257812 0.046875 3.234375 -0.234375 3.015625 C -0.523438 2.804688 -0.671875 2.539062 -0.671875 2.21875 C -0.671875 2.050781 -0.617188 1.890625 -0.515625 1.734375 C -0.410156 1.578125 -0.25 1.441406 -0.03125 1.328125 C 0.332031 1.109375 0.5625 0.867188 0.65625 0.609375 C 0.75 0.359375 0.796875 0.0351562 0.796875 -0.359375 L 0.796875 -8.78125 C 0.796875 -9.050781 0.890625 -9.28125 1.078125 -9.46875 C 1.273438 -9.65625 1.554688 -9.75 1.921875 -9.75 C 2.191406 -9.75 2.4375 -9.65625 2.65625 -9.46875 C 2.875 -9.28125 2.984375 -9.050781 2.984375 -8.78125 L 2.984375 -1 C 2.992188 -0.488281 2.96875 0.00390625 2.90625 0.484375 C 2.851562 0.972656 2.679688 1.4375 2.390625 1.875 C 2.097656 2.3125 1.601562 2.710938 0.90625 3.078125 Z M 0.84375 3.09375 "/></g></g></g><g fill="#ffffff" fill-opacity="1"><g transform="translate(88.422269, 24.411103)"><g><path d="M 2.875 -11.171875 C 2.875 -10.859375 2.753906 -10.617188 2.515625 -10.453125 C 2.273438 -10.296875 2.023438 -10.21875 1.765625 -10.21875 C 1.484375 -10.21875 1.226562 -10.296875 1 -10.453125 C 0.769531 -10.617188 0.65625 -10.859375 0.65625 -11.171875 L 0.65625 -11.421875 C 0.65625 -11.753906 0.769531 -12 1 -12.15625 C 1.226562 -12.3125 1.484375 -12.390625 1.765625 -12.390625 C 2.023438 -12.390625 2.273438 -12.3125 2.515625 -12.15625 C 2.753906 -12 2.875 -11.753906 2.875 -11.421875 Z M 0.671875 -8.8125 C 0.671875 -9.113281 0.785156 -9.34375 1.015625 -9.5 C 1.253906 -9.664062 1.503906 -9.75 1.765625 -9.75 C 2.023438 -9.75 2.269531 -9.664062 2.5 -9.5 C 2.738281 -9.34375 2.859375 -9.117188 2.859375 -8.828125 L 2.859375 -0.9375 C 2.859375 -0.613281 2.738281 -0.375 2.5 -0.21875 C 2.269531 -0.0703125 2.023438 0 1.765625 0 C 1.503906 0 1.253906 -0.0703125 1.015625 -0.21875 C 0.785156 -0.375 0.671875 -0.613281 0.671875 -0.9375 Z M 0.671875 -8.8125 "/></g></g></g></svg>