<svg xmlns="http://www.w3.org/2000/svg" xmlns:xlink="http://www.w3.org/1999/xlink" width="500" zoomAndPan="magnify" viewBox="0 0 375 374.999991" height="500" preserveAspectRatio="xMidYMid meet" version="1.0"><defs><clipPath id="a4aeb34eb4"><path d="M 25 144 L 258 144 L 258 359 L 25 359 Z M 25 144 " clip-rule="nonzero"/></clipPath><clipPath id="4f04a6a333"><path d="M -17.5625 220.335938 L 103.007812 53.433594 L 354.605469 235.1875 L 234.035156 402.089844 Z M -17.5625 220.335938 " clip-rule="nonzero"/></clipPath><clipPath id="ad583054d5"><path d="M -17.5625 220.335938 L 103.007812 53.433594 L 354.605469 235.1875 L 234.035156 402.089844 Z M -17.5625 220.335938 " clip-rule="nonzero"/></clipPath><clipPath id="a90a61d06a"><path d="M 113 23 L 346 23 L 346 238 L 113 238 Z M 113 23 " clip-rule="nonzero"/></clipPath><clipPath id="99ee224dc5"><path d="M 69.847656 99.335938 L 190.417969 -67.566406 L 442.015625 114.1875 L 321.445312 281.089844 Z M 69.847656 99.335938 " clip-rule="nonzero"/></clipPath><clipPath id="2831668e99"><path d="M 69.847656 99.335938 L 190.417969 -67.566406 L 442.015625 114.1875 L 321.445312 281.089844 Z M 69.847656 99.335938 " clip-rule="nonzero"/></clipPath></defs><g clip-path="url(#a4aeb34eb4)"><g clip-path="url(#4f04a6a333)"><g clip-path="url(#ad583054d5)"><path fill="#6db432" d="M 231.292969 144.332031 L 48.132812 172.898438 C 12.757812 178.414062 20.621094 247.910156 62.390625 240.652344 L 175.964844 220.917969 L 190.273438 336.320312 C 194.632812 371.460938 262.871094 361.496094 257.699219 325.929688 Z M 231.292969 144.332031 " fill-opacity="1" fill-rule="nonzero"/></g></g></g><g clip-path="url(#a90a61d06a)"><g clip-path="url(#99ee224dc5)"><g clip-path="url(#2831668e99)"><path fill="#6db432" d="M 318.703125 23.332031 L 135.546875 51.898438 C 100.167969 57.414062 108.03125 126.910156 149.800781 119.65625 L 263.375 99.917969 L 277.683594 215.320312 C 282.042969 250.460938 350.28125 240.496094 345.109375 204.929688 Z M 318.703125 23.332031 " fill-opacity="1" fill-rule="nonzero"/></g></g></g></svg>